<svg width="20" height="21" viewBox="0 0 20 21" fill="none" xmlns="http://www.w3.org/2000/svg">
<path d="M18.0406 17.0625C16.8508 15.0055 15.0172 13.5305 12.8773 12.8313C13.9358 12.2011 14.7582 11.241 15.2181 10.0983C15.6781 8.95556 15.7502 7.69344 15.4235 6.50575C15.0967 5.31806 14.3891 4.27046 13.4094 3.52385C12.4296 2.77723 11.2318 2.37288 10 2.37288C8.76818 2.37288 7.57041 2.77723 6.59064 3.52385C5.61087 4.27046 4.90328 5.31806 4.57651 6.50575C4.24975 7.69344 4.32189 8.95556 4.78186 10.0983C5.24183 11.241 6.06419 12.2011 7.12265 12.8313C4.98281 13.5297 3.14922 15.0047 1.95937 17.0625C1.91574 17.1336 1.8868 17.2128 1.87425 17.2953C1.86171 17.3778 1.86582 17.462 1.88634 17.5429C1.90687 17.6238 1.94338 17.6998 1.99374 17.7664C2.0441 17.8329 2.10728 17.8887 2.17955 17.9305C2.25182 17.9722 2.33172 17.999 2.41454 18.0094C2.49735 18.0198 2.5814 18.0135 2.66173 17.9908C2.74206 17.9682 2.81705 17.9297 2.88225 17.8776C2.94746 17.8255 3.00158 17.7608 3.0414 17.6875C4.51328 15.1438 7.11484 13.625 10 13.625C12.8852 13.625 15.4867 15.1438 16.9586 17.6875C16.9984 17.7608 17.0525 17.8255 17.1177 17.8776C17.183 17.9297 17.2579 17.9682 17.3383 17.9908C17.4186 18.0135 17.5026 18.0198 17.5855 18.0094C17.6683 17.999 17.7482 17.9722 17.8204 17.9305C17.8927 17.8887 17.9559 17.8329 18.0063 17.7664C18.0566 17.6998 18.0931 17.6238 18.1136 17.5429C18.1342 17.462 18.1383 17.3778 18.1257 17.2953C18.1132 17.2128 18.0843 17.1336 18.0406 17.0625ZM5.625 8C5.625 7.13471 5.88159 6.28885 6.36232 5.56938C6.84305 4.84992 7.52633 4.28916 8.32576 3.95803C9.12518 3.62689 10.0049 3.54025 10.8535 3.70906C11.7022 3.87788 12.4817 4.29455 13.0936 4.90641C13.7054 5.51826 14.1221 6.29781 14.2909 7.14648C14.4597 7.99515 14.3731 8.87481 14.042 9.67424C13.7108 10.4737 13.1501 11.1569 12.4306 11.6377C11.7112 12.1184 10.8653 12.375 10 12.375C8.84006 12.3738 7.72798 11.9124 6.90778 11.0922C6.08757 10.272 5.62624 9.15994 5.625 8Z" fill="#686F80"/>
</svg>
